<svg width="580" height="440" viewBox="0 0 580 440" fill="none" xmlns="http://www.w3.org/2000/svg">
<path d="M522.1 319.1H238.6C230.2 319.1 223.3 312.3 223.3 303.8V123.7C223.3 115.3 230.1 108.4 238.6 108.4H522.1C530.5 108.4 537.4 115.2 537.4 123.7V303.9C537.4 312.3 530.5 319.1 522.1 319.1Z" fill="#F4F3F4"/>
<path d="M510.6 305.7H227.2C218.8 305.7 211.9 298.9 211.9 290.4V110.2C211.9 101.8 218.7 94.9 227.2 94.9H510.7C519.1 94.9 526 101.7 526 110.2V290.4C525.9 298.8 519 305.7 510.6 305.7Z" fill="white" stroke="#3A3836" stroke-width="2" stroke-miterlimit="10"/>
<path d="M246.7 131.7C249.241 131.7 251.3 129.641 251.3 127.1C251.3 124.559 249.241 122.5 246.7 122.5C244.16 122.5 242.1 124.559 242.1 127.1C242.1 129.641 244.16 131.7 246.7 131.7Z" fill="#E5E5E5"/>
<path d="M246.7 181.2C249.241 181.2 251.3 179.141 251.3 176.6C251.3 174.059 249.241 172 246.7 172C244.16 172 242.1 174.059 242.1 176.6C242.1 179.141 244.16 181.2 246.7 181.2Z" fill="#E5E5E5"/>
<path d="M246.7 230.8C249.241 230.8 251.3 228.74 251.3 226.2C251.3 223.659 249.241 221.6 246.7 221.6C244.16 221.6 242.1 223.659 242.1 226.2C242.1 228.74 244.16 230.8 246.7 230.8Z" fill="#E5E5E5"/>
<path d="M246.7 280.3C249.241 280.3 251.3 278.241 251.3 275.7C251.3 273.16 249.241 271.1 246.7 271.1C244.16 271.1 242.1 273.16 242.1 275.7C242.1 278.241 244.16 280.3 246.7 280.3Z" fill="#E5E5E5"/>
<path d="M294.7 131.7C297.241 131.7 299.3 129.641 299.3 127.1C299.3 124.559 297.241 122.5 294.7 122.5C292.16 122.5 290.1 124.559 290.1 127.1C290.1 129.641 292.16 131.7 294.7 131.7Z" fill="#E5E5E5"/>
<path d="M294.7 181.2C297.241 181.2 299.3 179.141 299.3 176.6C299.3 174.059 297.241 172 294.7 172C292.16 172 290.1 174.059 290.1 176.6C290.1 179.141 292.16 181.2 294.7 181.2Z" fill="#E5E5E5"/>
<path d="M294.7 230.8C297.241 230.8 299.3 228.74 299.3 226.2C299.3 223.659 297.241 221.6 294.7 221.6C292.16 221.6 290.1 223.659 290.1 226.2C290.1 228.74 292.16 230.8 294.7 230.8Z" fill="#E5E5E5"/>
<path d="M294.7 280.3C297.241 280.3 299.3 278.241 299.3 275.7C299.3 273.16 297.241 271.1 294.7 271.1C292.16 271.1 290.1 273.16 290.1 275.7C290.1 278.241 292.16 280.3 294.7 280.3Z" fill="#E5E5E5"/>
<path d="M342.7 131.7C345.241 131.7 347.3 129.641 347.3 127.1C347.3 124.559 345.241 122.5 342.7 122.5C340.16 122.5 338.1 124.559 338.1 127.1C338.1 129.641 340.16 131.7 342.7 131.7Z" fill="#E5E5E5"/>
<path d="M342.7 181.2C345.241 181.2 347.3 179.141 347.3 176.6C347.3 174.059 345.241 172 342.7 172C340.16 172 338.1 174.059 338.1 176.6C338.1 179.141 340.16 181.2 342.7 181.2Z" fill="#E5E5E5"/>
<path d="M342.7 230.8C345.241 230.8 347.3 228.74 347.3 226.2C347.3 223.659 345.241 221.6 342.7 221.6C340.16 221.6 338.1 223.659 338.1 226.2C338.1 228.74 340.16 230.8 342.7 230.8Z" fill="#E5E5E5"/>
<path d="M342.7 280.3C345.241 280.3 347.3 278.241 347.3 275.7C347.3 273.16 345.241 271.1 342.7 271.1C340.16 271.1 338.1 273.16 338.1 275.7C338.1 278.241 340.16 280.3 342.7 280.3Z" fill="#E5E5E5"/>
<path d="M390.7 131.7C393.241 131.7 395.3 129.641 395.3 127.1C395.3 124.559 393.241 122.5 390.7 122.5C388.16 122.5 386.1 124.559 386.1 127.1C386.1 129.641 388.16 131.7 390.7 131.7Z" fill="#E5E5E5"/>
<path d="M390.7 181.2C393.241 181.2 395.3 179.141 395.3 176.6C395.3 174.059 393.241 172 390.7 172C388.16 172 386.1 174.059 386.1 176.6C386.1 179.141 388.16 181.2 390.7 181.2Z" fill="#E5E5E5"/>
<path d="M390.7 230.8C393.241 230.8 395.3 228.74 395.3 226.2C395.3 223.659 393.241 221.6 390.7 221.6C388.16 221.6 386.1 223.659 386.1 226.2C386.1 228.74 388.16 230.8 390.7 230.8Z" fill="#E5E5E5"/>
<path d="M390.7 280.3C393.241 280.3 395.3 278.241 395.3 275.7C395.3 273.16 393.241 271.1 390.7 271.1C388.16 271.1 386.1 273.16 386.1 275.7C386.1 278.241 388.16 280.3 390.7 280.3Z" fill="#E5E5E5"/>
<path d="M438.9 131.7C441.441 131.7 443.5 129.641 443.5 127.1C443.5 124.559 441.441 122.5 438.9 122.5C436.359 122.5 434.3 124.559 434.3 127.1C434.3 129.641 436.359 131.7 438.9 131.7Z" fill="#E5E5E5"/>
<path d="M438.9 181.2C441.441 181.2 443.5 179.141 443.5 176.6C443.5 174.059 441.441 172 438.9 172C436.359 172 434.3 174.059 434.3 176.6C434.3 179.141 436.359 181.2 438.9 181.2Z" fill="#E5E5E5"/>
<path d="M438.9 230.8C441.441 230.8 443.5 228.74 443.5 226.2C443.5 223.659 441.441 221.6 438.9 221.6C436.359 221.6 434.3 223.659 434.3 226.2C434.3 228.74 436.359 230.8 438.9 230.8Z" fill="#E5E5E5"/>
<path d="M438.9 280.3C441.441 280.3 443.5 278.241 443.5 275.7C443.5 273.16 441.441 271.1 438.9 271.1C436.359 271.1 434.3 273.16 434.3 275.7C434.3 278.241 436.359 280.3 438.9 280.3Z" fill="#E5E5E5"/>
<path d="M486.9 131.7C489.441 131.7 491.5 129.641 491.5 127.1C491.5 124.559 489.441 122.5 486.9 122.5C484.359 122.5 482.3 124.559 482.3 127.1C482.3 129.641 484.359 131.7 486.9 131.7Z" fill="#E5E5E5"/>
<path d="M486.9 181.2C489.441 181.2 491.5 179.141 491.5 176.6C491.5 174.059 489.441 172 486.9 172C484.359 172 482.3 174.059 482.3 176.6C482.3 179.141 484.359 181.2 486.9 181.2Z" fill="#E5E5E5"/>
<path d="M486.9 230.8C489.441 230.8 491.5 228.74 491.5 226.2C491.5 223.659 489.441 221.6 486.9 221.6C484.359 221.6 482.3 223.659 482.3 226.2C482.3 228.74 484.359 230.8 486.9 230.8Z" fill="#E5E5E5"/>
<path d="M486.9 280.3C489.441 280.3 491.5 278.241 491.5 275.7C491.5 273.16 489.441 271.1 486.9 271.1C484.359 271.1 482.3 273.16 482.3 275.7C482.3 278.241 484.359 280.3 486.9 280.3Z" fill="#E5E5E5"/>
<path d="M501.4 212.5H445.5C442.3 212.5 439.6 209.9 439.6 206.6V189.8C439.6 186.6 442.2 183.9 445.5 183.9H501.4C504.6 183.9 507.3 186.5 507.3 189.8V206.6C507.3 209.9 504.7 212.5 501.4 212.5Z" fill="white" stroke="#3A3836" stroke-width="2" stroke-miterlimit="10"/>
<path d="M377.3 198.2H450.8" stroke="#3A3836" stroke-width="2" stroke-miterlimit="10"/>
<path d="M469.5 267H436.5C425.7 267 416.9 258.2 416.9 247.4V217.9C416.9 207.1 408.1 198.3 397.3 198.3H387.5" stroke="#3A3836" stroke-width="2" stroke-miterlimit="10"/>
<path d="M416.9 235.3C419.827 235.3 422.2 232.927 422.2 230C422.2 227.073 419.827 224.7 416.9 224.7C413.973 224.7 411.6 227.073 411.6 230C411.6 232.927 413.973 235.3 416.9 235.3Z" fill="#E4D8F6" stroke="#3A3836" stroke-width="2" stroke-miterlimit="10"/>
<path d="M541.9 281.3H472.7C469.5 281.3 466.8 278.7 466.8 275.4V258.6C466.8 255.4 469.4 252.7 472.7 252.7H541.9C545.1 252.7 547.8 255.3 547.8 258.6V275.4C547.8 278.6 545.2 281.3 541.9 281.3Z" fill="white" stroke="#3A3836" stroke-width="2" stroke-miterlimit="10"/>
<path d="M541.9 281.3H472.7C469.5 281.3 466.8 278.7 466.8 275.4V258.6C466.8 255.4 469.4 252.7 472.7 252.7H541.9C545.1 252.7 547.8 255.3 547.8 258.6V275.4C547.8 278.6 545.2 281.3 541.9 281.3Z" stroke="#3A3836" stroke-width="2" stroke-miterlimit="10"/>
<path d="M498.7 267H529.4" stroke="#BFBFBF" stroke-width="2" stroke-miterlimit="10"/>
<path d="M541.9 281.3H472.7C469.5 281.3 466.8 278.7 466.8 275.4V258.6C466.8 255.4 469.4 252.7 472.7 252.7H541.9C545.1 252.7 547.8 255.3 547.8 258.6V275.4C547.8 278.6 545.2 281.3 541.9 281.3Z" fill="white" stroke="#3A3836" stroke-width="2" stroke-miterlimit="10"/>
<path d="M484 281.3H472.7C469.5 281.3 466.8 278.7 466.8 275.4V258.6C466.8 255.4 469.4 252.7 472.7 252.7H484V281.3Z" fill="#A4EEC4"/>
<path d="M541.9 281.3H472.7C469.5 281.3 466.8 278.7 466.8 275.4V258.6C466.8 255.4 469.4 252.7 472.7 252.7H541.9C545.1 252.7 547.8 255.3 547.8 258.6V275.4C547.8 278.6 545.2 281.3 541.9 281.3Z" stroke="#3A3836" stroke-width="2" stroke-miterlimit="10"/>
<path d="M532.1 269.7H495.5C494 269.7 492.7 268.5 492.7 266.9C492.7 265.3 493.9 264.1 495.5 264.1H532.1C533.6 264.1 534.9 265.3 534.9 266.9C534.9 268.5 533.6 269.7 532.1 269.7Z" fill="#E6E6E6"/>
<path d="M466.8 259.4V274.5C464.4 274.5 462.4 272.5 462.4 270.1V263.8C462.4 261.4 464.4 259.4 466.8 259.4Z" fill="#E6E6E6" stroke="#3A3836" stroke-width="2" stroke-miterlimit="10"/>
<path d="M501.4 212.5H445.5C442.3 212.5 439.6 209.9 439.6 206.6V189.8C439.6 186.6 442.2 183.9 445.5 183.9H501.4C504.6 183.9 507.3 186.5 507.3 189.8V206.6C507.3 209.9 504.7 212.5 501.4 212.5Z" stroke="#3A3836" stroke-width="2" stroke-miterlimit="10"/>
<path d="M456.9 212.5H445.6C442.4 212.5 439.7 209.9 439.7 206.6V189.8C439.7 186.6 442.3 183.9 445.6 183.9H456.9V212.5Z" fill="#D1DAFA"/>
<path d="M501.4 212.5H445.5C442.3 212.5 439.6 209.9 439.6 206.6V189.8C439.6 186.6 442.2 183.9 445.5 183.9H501.4C504.6 183.9 507.3 186.5 507.3 189.8V206.6C507.3 209.9 504.7 212.5 501.4 212.5Z" stroke="#3A3836" stroke-width="2" stroke-miterlimit="10"/>
<path d="M490.7 201H468.4C466.9 201 465.6 199.8 465.6 198.2C465.6 196.6 466.8 195.4 468.4 195.4H490.7C492.2 195.4 493.5 196.6 493.5 198.2C493.5 199.8 492.2 201 490.7 201Z" fill="#E6E6E6"/>
<path d="M439.7 190.7V205.8C437.3 205.8 435.3 203.8 435.3 201.4V195.1C435.3 192.7 437.3 190.7 439.7 190.7Z" fill="#E6E6E6" stroke="#3A3836" stroke-width="2" stroke-miterlimit="10"/>
<path d="M246.3 161.9H252C260.1 161.9 266.6 168.4 266.6 176.5V194.9C266.6 203 273.1 209.5 281.2 209.5H302.2" stroke="url(#paint0_linear_1355_103)" stroke-width="2" stroke-miterlimit="10"/>
<path d="M244.5 186.8H197C193.7 186.8 191 184.1 191 180.8V147.2C191 143.9 193.7 141.2 197 141.2H244.5C247.8 141.2 250.5 143.9 250.5 147.2V180.8C250.5 184.1 247.8 186.8 244.5 186.8Z" fill="#3A3836" stroke="#3A3836" stroke-width="2" stroke-miterlimit="10"/>
<path d="M241.7 184.9H194.2C190.9 184.9 188.2 182.2 188.2 178.9V145.3C188.2 142 190.9 139.3 194.2 139.3H241.7C245 139.3 247.7 142 247.7 145.3V178.9C247.7 182.2 245 184.9 241.7 184.9Z" fill="url(#paint1_linear_1355_103)" stroke="#3A3836" stroke-width="2" stroke-miterlimit="10"/>
<path d="M230.3 162.1L220.3 167.8L210.4 173.6V162.1V150.6L220.3 156.4L230.3 162.1Z" fill="white" stroke="white" stroke-width="2" stroke-miterlimit="10" stroke-linecap="round" stroke-linejoin="round"/>
<path d="M370.8 246.6H292.4C289.2 246.6 286.5 244 286.5 240.7V168C286.5 164.8 289.1 162.1 292.4 162.1H370.8C374 162.1 376.7 164.7 376.7 168V240.7C376.7 244 374.1 246.6 370.8 246.6Z" fill="white" stroke="#3A3836" stroke-width="2" stroke-miterlimit="10"/>
<path d="M376.7 179.2H286.5V168C286.5 164.8 289.1 162.1 292.4 162.1H370.8C374 162.1 376.7 164.7 376.7 168V179.2Z" fill="#E4D8F6"/>
<path d="M370.8 246.8H292.4C289.2 246.8 286.5 244.2 286.5 240.9V168C286.5 164.8 289.1 162.1 292.4 162.1H370.8C374 162.1 376.7 164.7 376.7 168V241C376.7 244.2 374.1 246.8 370.8 246.8Z" stroke="#3A3836" stroke-width="2" stroke-miterlimit="10"/>
<path d="M330.2 196.4H298C296.5 196.4 295.2 195.2 295.2 193.6C295.2 192 296.4 190.8 298 190.8H330.2C331.7 190.8 333 192 333 193.6C333 195.2 331.7 196.4 330.2 196.4Z" fill="#E6E6E6"/>
<path d="M365.2 196.4H348.2C346.7 196.4 345.4 195.2 345.4 193.6C345.4 192 346.6 190.8 348.2 190.8H365.2C366.7 190.8 368 192 368 193.6C368 195.2 366.7 196.4 365.2 196.4Z" fill="#E6E6E6"/>
<path d="M376.7 205V189.9C379.1 189.9 381.1 191.9 381.1 194.3V200.6C381.1 203 379.1 205 376.7 205Z" fill="#E6E6E6" stroke="#3A3836" stroke-width="2" stroke-miterlimit="10"/>
<path d="M376.7 229.7V214.6C379.1 214.6 381.1 216.6 381.1 219V225.3C381.1 227.8 379.1 229.7 376.7 229.7Z" fill="#E6E6E6" stroke="#3A3836" stroke-width="2" stroke-miterlimit="10"/>
<path d="M286.5 202V217.1C284.1 217.1 282.1 215.1 282.1 212.7V206.4C282.1 204 284.1 202 286.5 202Z" fill="#E6E6E6" stroke="#3A3836" stroke-width="2" stroke-miterlimit="10"/>
<path d="M317.6 228.2H298.1C296.6 228.2 295.3 227 295.3 225.4C295.3 223.8 296.5 222.6 298.1 222.6H317.6C319.1 222.6 320.4 223.8 320.4 225.4C320.4 227 319.1 228.2 317.6 228.2Z" fill="#E6E6E6"/>
<path d="M337.6 212.6H298.1C296.6 212.6 295.3 211.4 295.3 209.8C295.3 208.2 296.5 207 298.1 207H337.6C339.1 207 340.4 208.2 340.4 209.8C340.4 211.4 339.1 212.6 337.6 212.6Z" fill="#E6E6E6"/>
<path d="M442.4 347.2C442.4 347.2 454.6 346.6 457.1 332.7C457.1 332.7 457.9 345.1 471.8 347.2C471.8 347.2 458.9 348.1 457.1 361.7C457.1 361.7 457.1 349.8 442.4 347.2Z" fill="#FFDE83"/>
<path d="M161.1 66.9C161.1 66.9 173.3 66.3 175.8 52.4C175.8 52.4 176.6 64.8 190.5 66.9C190.5 66.9 177.6 67.8 175.8 81.4C175.8 81.4 175.8 69.6 161.1 66.9Z" fill="#FFDE83"/>
<path d="M176.8 379.1H42.4C36.8 379.1 32.2 383.7 32.2 389.3C32.2 394.9 36.8 399.5 42.4 399.5H176.8C182.4 399.5 187 394.9 187 389.3C187.1 383.7 182.5 379.1 176.8 379.1Z" fill="#E5E5E5"/>
<path d="M205.3 173.5C201.9 170 197.4 168 192.5 168H192.4C187.5 168 182.9 170 179.5 173.6C160.3 194.1 144.2 196.7 139.3 197C149.2 184.8 153.2 168.3 149.4 152.7C142.8 125.2 115.1 108.2 87.6 114.7C80.7 116.3 74.4 119.3 68.9 123.4L65.4 119C68.1 116.1 68.2 111.5 65.6 108.4C62.7 105 57.7 104.6 54.3 107.5C51 110.4 50.6 115.4 53.4 118.8C54.8 120.4 56.7 121.4 58.9 121.6C59.1 121.6 59.3 121.6 59.6 121.6C61.2 121.6 62.7 121.1 64 120.3L67.5 124.6C63 128.2 59.1 132.7 56 137.7C48.8 149.4 46.6 163.1 49.8 176.5C51.9 185.5 57.2 194.7 64 201.6H57.2C50.5 201.6 45.1 207.1 45.1 213.7V280.4C45.1 284.7 47.4 288.5 50.8 290.7C50 293.1 47.4 302 51.2 307.1C52.9 309.4 55.7 310.6 59.4 310.6C59.9 310.6 60.5 310.6 61 310.5L59.1 370.6C59.1 381.7 68.2 390.8 79.3 390.8C90.4 390.8 99.5 381.7 99.5 370.7L104.1 320.8C104.2 319.2 105.5 318 107.1 318C108.7 318 110 319.2 110.1 320.8V320.9L117.3 369C120 382.7 127.4 390.1 138.4 390.2H138.6C143 390.2 147.1 388.5 150.4 385.2C154.9 380.7 157.6 373.7 157.6 366.3L152.1 266.4V266.1L151.5 254.4C151.6 254.1 151.7 253.8 151.5 253.5C151.5 253.5 151.5 253.4 151.4 253.4L150.5 236.3C179.6 234.4 196.6 210.2 205.7 197L206.9 195.3C211.8 188.9 211.1 179.6 205.3 173.5Z" fill="white"/>
<path d="M137.9 198C137.9 198 156.8 199.5 180.4 174.3C187 167.3 198.1 167.2 204.7 174.2C210.1 179.9 210.8 188.7 206.3 195.1C197.7 207.3 180.3 234.2 149.7 235.7" fill="white"/>
<path d="M137.9 198C137.9 198 156.8 199.5 180.4 174.3C187 167.3 198.1 167.2 204.7 174.2C210.1 179.9 210.8 188.7 206.3 195.1C197.7 207.3 180.3 234.2 149.7 235.7" stroke="#3A3836" stroke-width="2" stroke-miterlimit="10"/>
<path d="M149.6 235.7L156.8 366.5C156.8 377.9 149.9 389.5 138.5 389.3C127.3 389.2 120.8 381.6 118.3 368.9L111.1 320.9C111 318.8 109.3 317.1 107.2 317.1C105.1 317.1 103.4 318.7 103.3 320.8L98.7 370.7C98.7 381.3 90.1 389.9 79.5 389.9C68.9 389.9 60.3 381.3 60.3 370.7L62.7 292.7" stroke="#3A3836" stroke-width="2" stroke-linecap="round" stroke-linejoin="round"/>
<path d="M66.2 202.4C59.2 195.9 53.2 186.2 50.8 176.3C44.3 149.3 61 122.1 88.1 115.7C115.1 109.2 142.3 125.9 148.8 152.9C153.5 172.4 146.1 192 131.4 203.8L127.3 207" stroke="#3A3836" stroke-width="2" stroke-linecap="round" stroke-linejoin="round"/>
<path d="M138.4 196.6C130.4 192.4 122.5 184.5 120.2 175C116.3 158.8 125.2 142.6 140.5 137" stroke="#3A3836" stroke-width="2" stroke-linecap="round" stroke-linejoin="round"/>
<path d="M150.7 254.2C150.7 254.2 140.6 259.3 128.7 244.5" stroke="#3A3836" stroke-width="2" stroke-linecap="round" stroke-linejoin="round"/>
<path d="M151.3 266.5C151.3 266.5 137.1 268 128.6 257.2" stroke="#3A3836" stroke-width="2" stroke-linecap="round" stroke-linejoin="round"/>
<path d="M143.9 197.6C143.9 197.6 130 207.5 128 217.5" stroke="#3A3836" stroke-width="2" stroke-linecap="round" stroke-linejoin="round"/>
<path d="M57.2 291.7H117.6C123.8 291.7 128.8 286.7 128.8 280.5V213.8C128.8 207.6 123.8 202.6 117.6 202.6H57.2C51 202.6 46 207.6 46 213.8V280.5C46 286.7 51 291.7 57.2 291.7Z" fill="white" stroke="#3A3836" stroke-width="2" stroke-linecap="round" stroke-linejoin="round"/>
<path d="M61.1 309.6C44.9 311.1 51.1 292.4 51.8 290.6" stroke="#3A3836" stroke-width="2" stroke-linecap="round" stroke-linejoin="round"/>
<path d="M93.1 177.3C97.3 177.3 100.6 173.9 100.6 169.8C100.6 165.6 97.2 162.3 93.1 162.3C88.9 162.3 85.6 165.7 85.6 169.8C85.6 174 88.9 177.3 93.1 177.3Z" stroke="#3A3836" stroke-width="2" stroke-linecap="round" stroke-linejoin="round"/>
<path d="M106.4 202.6V221.9C106.4 229.1 100.6 234.9 93.4 234.9H47.6" stroke="#3A3836" stroke-width="2" stroke-linecap="round" stroke-linejoin="round"/>
<path d="M85.5 253.3C88.1 253.3 90.1 251.2 90.1 248.7C90.1 246.2 88 244.1 85.5 244.1C83 244.1 80.9 246.2 80.9 248.7C80.9 251.2 83 253.3 85.5 253.3Z" fill="#FF8E64" stroke="#3A3836" stroke-width="2" stroke-linecap="round" stroke-linejoin="round"/>
<path d="M71.5 253.3C74.1 253.3 76.1 251.2 76.1 248.7C76.1 246.2 74 244.1 71.5 244.1C68.9 244.1 66.9 246.2 66.9 248.7C66.9 251.2 69 253.3 71.5 253.3Z" fill="#FF8E64" stroke="#3A3836" stroke-width="2" stroke-linecap="round" stroke-linejoin="round"/>
<path d="M47.4 244.2H58C60 244.2 61.6 246.3 61.6 249C61.6 251.7 60 253.8 58 253.8H47.4" stroke="#3A3836" stroke-width="2" stroke-linecap="round" stroke-linejoin="round"/>
<path d="M47.4 262.5H105C107 262.5 108.6 264.6 108.6 267.3C108.6 270 107 272.1 105 272.1H47.4" stroke="#3A3836" stroke-width="2" stroke-linecap="round" stroke-linejoin="round"/>
<path d="M64.5 119.4L68.6 124.5" stroke="#3A3836" stroke-width="2" stroke-linecap="round" stroke-linejoin="round"/>
<path d="M64.2 119.1C67.1 116.6 67.5 112.2 65 109.2C62.5 106.2 58 105.9 55.1 108.4C52.2 110.9 51.8 115.3 54.3 118.3C56.8 121.2 61.2 121.6 64.2 119.1Z" fill="#FF8E64" stroke="#3A3836" stroke-width="2" stroke-miterlimit="10"/>
<defs>
<linearGradient id="paint0_linear_1355_103" x1="246" y1="160" x2="283" y2="212" gradientUnits="userSpaceOnUse">
<stop stop-color="#FF601A"/>
<stop offset="1" stop-color="#FFA400"/>
</linearGradient>
<linearGradient id="paint1_linear_1355_103" x1="217.95" y1="139.3" x2="217.95" y2="184.9" gradientUnits="userSpaceOnUse">
<stop stop-color="#FF6C37"/>
<stop offset="1" stop-color="#FFB400"/>
</linearGradient>
</defs>
</svg>
