<svg width="576" height="312" viewBox="0 0 576 312" fill="none" xmlns="http://www.w3.org/2000/svg">
<path d="M241.07 131.738C243.81 131.738 246.031 129.517 246.031 126.777C246.031 124.038 243.81 121.816 241.07 121.816C238.331 121.816 236.109 124.038 236.109 126.777C236.109 129.517 238.331 131.738 241.07 131.738Z" fill="#E5E5E5"/>
<path d="M241.07 185.232C243.81 185.232 246.031 183.01 246.031 180.271C246.031 177.531 243.81 175.31 241.07 175.31C238.331 175.31 236.109 177.531 236.109 180.271C236.109 183.01 238.331 185.232 241.07 185.232Z" fill="#E5E5E5"/>
<path d="M241.071 78.3532C243.811 78.3532 246.033 76.1315 246.033 73.3922C246.033 70.6528 243.811 68.4312 241.071 68.4312C238.332 68.4312 236.11 70.6528 236.11 73.3922C236.11 76.1315 238.332 78.3532 241.071 78.3532Z" fill="#E5E5E5"/>
<path d="M292.838 131.738C295.577 131.738 297.799 129.517 297.799 126.777C297.799 124.038 295.577 121.816 292.838 121.816C290.099 121.816 287.877 124.038 287.877 126.777C287.877 129.517 290.099 131.738 292.838 131.738Z" fill="#E5E5E5"/>
<path d="M292.838 185.232C295.577 185.232 297.799 183.01 297.799 180.271C297.799 177.531 295.577 175.31 292.838 175.31C290.099 175.31 287.877 177.531 287.877 180.271C287.877 183.01 290.099 185.232 292.838 185.232Z" fill="#E5E5E5"/>
<path d="M241.071 238.616C243.811 238.616 246.032 236.395 246.032 233.655C246.032 230.916 243.811 228.694 241.071 228.694C238.332 228.694 236.11 230.916 236.11 233.655C236.11 236.395 238.332 238.616 241.071 238.616Z" fill="#E5E5E5"/>
<path d="M344.606 131.738C347.345 131.738 349.567 129.517 349.567 126.777C349.567 124.038 347.345 121.816 344.606 121.816C341.866 121.816 339.645 124.038 339.645 126.777C339.645 129.517 341.866 131.738 344.606 131.738Z" fill="#E5E5E5"/>
<path d="M344.606 185.232C347.345 185.232 349.567 183.01 349.567 180.271C349.567 177.531 347.345 175.31 344.606 175.31C341.866 175.31 339.645 177.531 339.645 180.271C339.645 183.01 341.866 185.232 344.606 185.232Z" fill="#E5E5E5"/>
<path d="M292.839 78.3532C295.578 78.3532 297.8 76.1315 297.8 73.3922C297.8 70.6528 295.578 68.4312 292.839 68.4312C290.099 68.4312 287.878 70.6528 287.878 73.3922C287.878 76.1315 290.099 78.3532 292.839 78.3532Z" fill="#E5E5E5"/>
<path d="M396.373 131.738C399.113 131.738 401.334 129.517 401.334 126.777C401.334 124.038 399.113 121.816 396.373 121.816C393.634 121.816 391.412 124.038 391.412 126.777C391.412 129.517 393.634 131.738 396.373 131.738Z" fill="#E5E5E5"/>
<path d="M396.373 185.232C399.113 185.232 401.334 183.01 401.334 180.271C401.334 177.531 399.113 175.31 396.373 175.31C393.634 175.31 391.412 177.531 391.412 180.271C391.412 183.01 393.634 185.232 396.373 185.232Z" fill="#E5E5E5"/>
<path d="M292.839 238.616C295.578 238.616 297.8 236.395 297.8 233.655C297.8 230.916 295.578 228.694 292.839 228.694C290.099 228.694 287.878 230.916 287.878 233.655C287.878 236.395 290.099 238.616 292.839 238.616Z" fill="#E5E5E5"/>
<path d="M448.355 131.738C451.094 131.738 453.316 129.517 453.316 126.777C453.316 124.038 451.094 121.816 448.355 121.816C445.616 121.816 443.394 124.038 443.394 126.777C443.394 129.517 445.616 131.738 448.355 131.738Z" fill="#E5E5E5"/>
<path d="M448.355 185.232C451.094 185.232 453.316 183.01 453.316 180.271C453.316 177.531 451.094 175.31 448.355 175.31C445.616 175.31 443.394 177.531 443.394 180.271C443.394 183.01 445.616 185.232 448.355 185.232Z" fill="#E5E5E5"/>
<path d="M344.605 78.3532C347.344 78.3532 349.566 76.1315 349.566 73.3922C349.566 70.6528 347.344 68.4312 344.605 68.4312C341.866 68.4312 339.644 70.6528 339.644 73.3922C339.644 76.1315 341.866 78.3532 344.605 78.3532Z" fill="#E5E5E5"/>
<path d="M500.125 131.738C502.864 131.738 505.086 129.517 505.086 126.777C505.086 124.038 502.864 121.816 500.125 121.816C497.385 121.816 495.164 124.038 495.164 126.777C495.164 129.517 497.385 131.738 500.125 131.738Z" fill="#E5E5E5"/>
<path d="M500.125 185.232C502.864 185.232 505.086 183.01 505.086 180.271C505.086 177.531 502.864 175.31 500.125 175.31C497.385 175.31 495.164 177.531 495.164 180.271C495.164 183.01 497.385 185.232 500.125 185.232Z" fill="#E5E5E5"/>
<path d="M344.605 238.616C347.344 238.616 349.566 236.395 349.566 233.655C349.566 230.916 347.344 228.694 344.605 228.694C341.866 228.694 339.644 230.916 339.644 233.655C339.644 236.395 341.866 238.616 344.605 238.616Z" fill="#E5E5E5"/>
<path d="M396.373 78.3532C399.112 78.3532 401.334 76.1315 401.334 73.3922C401.334 70.6528 399.112 68.4312 396.373 68.4312C393.633 68.4312 391.411 70.6528 391.411 73.3922C391.411 76.1315 393.633 78.3532 396.373 78.3532Z" fill="#E5E5E5"/>
<path d="M396.373 238.616C399.112 238.616 401.334 236.395 401.334 233.655C401.334 230.916 399.112 228.694 396.373 228.694C393.633 228.694 391.411 230.916 391.411 233.655C391.411 236.395 393.633 238.616 396.373 238.616Z" fill="#E5E5E5"/>
<path d="M448.356 78.3532C451.095 78.3532 453.317 76.1315 453.317 73.3922C453.317 70.6528 451.095 68.4312 448.356 68.4312C445.616 68.4312 443.395 70.6528 443.395 73.3922C443.395 76.1315 445.616 78.3532 448.356 78.3532Z" fill="#E5E5E5"/>
<path d="M448.356 238.616C451.095 238.616 453.317 236.395 453.317 233.655C453.317 230.916 451.095 228.694 448.356 228.694C445.616 228.694 443.395 230.916 443.395 233.655C443.395 236.395 445.616 238.616 448.356 238.616Z" fill="#E5E5E5"/>
<path d="M500.125 78.3532C502.864 78.3532 505.086 76.1315 505.086 73.3922C505.086 70.6528 502.864 68.4312 500.125 68.4312C497.386 68.4312 495.164 70.6528 495.164 73.3922C495.164 76.1315 497.386 78.3532 500.125 78.3532Z" fill="#E5E5E5"/>
<path d="M500.125 238.616C502.864 238.616 505.086 236.395 505.086 233.655C505.086 230.916 502.864 228.694 500.125 228.694C497.386 228.694 495.164 230.916 495.164 233.655C495.164 236.395 497.386 238.616 500.125 238.616Z" fill="#E5E5E5"/>
<path d="M547.203 258H219.682C209.974 258 202 251.129 202 242.54V60.4597C202 51.972 209.859 45 219.682 45H547.318C557.026 45 565 51.871 565 60.4597V242.54C564.884 251.028 556.91 258 547.203 258Z" fill="white" stroke="#3A3836" stroke-width="2" stroke-miterlimit="10"/>
<path d="M230.451 131.738C233.19 131.738 235.412 129.517 235.412 126.777C235.412 124.038 233.19 121.816 230.451 121.816C227.712 121.816 225.49 124.038 225.49 126.777C225.49 129.517 227.712 131.738 230.451 131.738Z" fill="#E5E5E5"/>
<path d="M230.451 185.231C233.19 185.231 235.412 183.009 235.412 180.27C235.412 177.531 233.19 175.309 230.451 175.309C227.712 175.309 225.49 177.531 225.49 180.27C225.49 183.009 227.712 185.231 230.451 185.231Z" fill="#E5E5E5"/>
<path d="M230.452 78.3532C233.191 78.3532 235.413 76.1315 235.413 73.3922C235.413 70.6528 233.191 68.4312 230.452 68.4312C227.713 68.4312 225.491 70.6528 225.491 73.3922C225.491 76.1315 227.713 78.3532 230.452 78.3532Z" fill="#E5E5E5"/>
<path d="M282.219 131.738C284.958 131.738 287.18 129.517 287.18 126.777C287.18 124.038 284.958 121.816 282.219 121.816C279.479 121.816 277.258 124.038 277.258 126.777C277.258 129.517 279.479 131.738 282.219 131.738Z" fill="#E5E5E5"/>
<path d="M282.219 185.231C284.958 185.231 287.18 183.009 287.18 180.27C287.18 177.531 284.958 175.309 282.219 175.309C279.479 175.309 277.258 177.531 277.258 180.27C277.258 183.009 279.479 185.231 282.219 185.231Z" fill="#E5E5E5"/>
<path d="M230.452 238.616C233.191 238.616 235.413 236.394 235.413 233.655C235.413 230.916 233.191 228.694 230.452 228.694C227.713 228.694 225.491 230.916 225.491 233.655C225.491 236.394 227.713 238.616 230.452 238.616Z" fill="#E5E5E5"/>
<path d="M333.987 131.738C336.726 131.738 338.948 129.517 338.948 126.777C338.948 124.038 336.726 121.816 333.987 121.816C331.247 121.816 329.026 124.038 329.026 126.777C329.026 129.517 331.247 131.738 333.987 131.738Z" fill="#E5E5E5"/>
<path d="M333.987 185.231C336.726 185.231 338.948 183.009 338.948 180.27C338.948 177.531 336.726 175.309 333.987 175.309C331.247 175.309 329.026 177.531 329.026 180.27C329.026 183.009 331.247 185.231 333.987 185.231Z" fill="#E5E5E5"/>
<path d="M282.22 78.3532C284.959 78.3532 287.181 76.1315 287.181 73.3922C287.181 70.6528 284.959 68.4312 282.22 68.4312C279.48 68.4312 277.259 70.6528 277.259 73.3922C277.259 76.1315 279.48 78.3532 282.22 78.3532Z" fill="#E5E5E5"/>
<path d="M385.754 131.738C388.493 131.738 390.715 129.517 390.715 126.777C390.715 124.038 388.493 121.816 385.754 121.816C383.015 121.816 380.793 124.038 380.793 126.777C380.793 129.517 383.015 131.738 385.754 131.738Z" fill="#E5E5E5"/>
<path d="M385.754 185.231C388.493 185.231 390.715 183.009 390.715 180.27C390.715 177.531 388.493 175.309 385.754 175.309C383.015 175.309 380.793 177.531 380.793 180.27C380.793 183.009 383.015 185.231 385.754 185.231Z" fill="#E5E5E5"/>
<path d="M282.22 238.616C284.959 238.616 287.181 236.394 287.181 233.655C287.181 230.916 284.959 228.694 282.22 228.694C279.48 228.694 277.259 230.916 277.259 233.655C277.259 236.394 279.48 238.616 282.22 238.616Z" fill="#E5E5E5"/>
<path d="M437.736 131.738C440.475 131.738 442.697 129.517 442.697 126.777C442.697 124.038 440.475 121.816 437.736 121.816C434.996 121.816 432.775 124.038 432.775 126.777C432.775 129.517 434.996 131.738 437.736 131.738Z" fill="#E5E5E5"/>
<path d="M437.736 185.231C440.475 185.231 442.697 183.009 442.697 180.27C442.697 177.531 440.475 175.309 437.736 175.309C434.996 175.309 432.775 177.531 432.775 180.27C432.775 183.009 434.996 185.231 437.736 185.231Z" fill="#E5E5E5"/>
<path d="M333.986 78.3532C336.725 78.3532 338.947 76.1315 338.947 73.3922C338.947 70.6528 336.725 68.4312 333.986 68.4312C331.246 68.4312 329.025 70.6528 329.025 73.3922C329.025 76.1315 331.246 78.3532 333.986 78.3532Z" fill="#E5E5E5"/>
<path d="M333.986 238.616C336.725 238.616 338.947 236.394 338.947 233.655C338.947 230.916 336.725 228.694 333.986 228.694C331.246 228.694 329.025 230.916 329.025 233.655C329.025 236.394 331.246 238.616 333.986 238.616Z" fill="#E5E5E5"/>
<path d="M385.753 78.3532C388.493 78.3532 390.714 76.1315 390.714 73.3922C390.714 70.6528 388.493 68.4312 385.753 68.4312C383.014 68.4312 380.792 70.6528 380.792 73.3922C380.792 76.1315 383.014 78.3532 385.753 78.3532Z" fill="#E5E5E5"/>
<path d="M385.753 238.616C388.493 238.616 390.714 236.394 390.714 233.655C390.714 230.916 388.493 228.694 385.753 228.694C383.014 228.694 380.792 230.916 380.792 233.655C380.792 236.394 383.014 238.616 385.753 238.616Z" fill="#E5E5E5"/>
<path d="M437.737 78.3532C440.476 78.3532 442.698 76.1315 442.698 73.3922C442.698 70.6528 440.476 68.4312 437.737 68.4312C434.997 68.4312 432.776 70.6528 432.776 73.3922C432.776 76.1315 434.997 78.3532 437.737 78.3532Z" fill="#E5E5E5"/>
<path d="M437.737 238.616C440.476 238.616 442.698 236.394 442.698 233.655C442.698 230.916 440.476 228.694 437.737 228.694C434.997 228.694 432.776 230.916 432.776 233.655C432.776 236.394 434.997 238.616 437.737 238.616Z" fill="#E5E5E5"/>
<path d="M489.506 131.738C492.245 131.738 494.467 129.517 494.467 126.777C494.467 124.038 492.245 121.816 489.506 121.816C486.766 121.816 484.545 124.038 484.545 126.777C484.545 129.517 486.766 131.738 489.506 131.738Z" fill="#E5E5E5"/>
<path d="M489.506 185.231C492.245 185.231 494.467 183.009 494.467 180.27C494.467 177.531 492.245 175.309 489.506 175.309C486.766 175.309 484.545 177.531 484.545 180.27C484.545 183.009 486.766 185.231 489.506 185.231Z" fill="#E5E5E5"/>
<path d="M489.506 78.3532C492.245 78.3532 494.467 76.1315 494.467 73.3922C494.467 70.6528 492.245 68.4312 489.506 68.4312C486.767 68.4312 484.545 70.6528 484.545 73.3922C484.545 76.1315 486.767 78.3532 489.506 78.3532Z" fill="#E5E5E5"/>
<path d="M489.506 238.616C492.245 238.616 494.467 236.394 494.467 233.655C494.467 230.916 492.245 228.694 489.506 228.694C486.767 228.694 484.545 230.916 484.545 233.655C484.545 236.394 486.767 238.616 489.506 238.616Z" fill="#E5E5E5"/>
<path d="M543.542 131.738C546.281 131.738 548.503 129.517 548.503 126.777C548.503 124.038 546.281 121.816 543.542 121.816C540.802 121.816 538.581 124.038 538.581 126.777C538.581 129.517 540.802 131.738 543.542 131.738Z" fill="#E5E5E5"/>
<path d="M543.542 185.232C546.281 185.232 548.503 183.01 548.503 180.271C548.503 177.531 546.281 175.31 543.542 175.31C540.802 175.31 538.581 177.531 538.581 180.271C538.581 183.01 540.802 185.232 543.542 185.232Z" fill="#E5E5E5"/>
<path d="M543.542 78.3532C546.281 78.3532 548.503 76.1315 548.503 73.3922C548.503 70.6528 546.281 68.4312 543.542 68.4312C540.803 68.4312 538.581 70.6528 538.581 73.3922C538.581 76.1315 540.803 78.3532 543.542 78.3532Z" fill="#E5E5E5"/>
<path d="M543.542 238.616C546.281 238.616 548.503 236.394 548.503 233.655C548.503 230.916 546.281 228.694 543.542 228.694C540.803 228.694 538.581 230.916 538.581 233.655C538.581 236.394 540.803 238.616 543.542 238.616Z" fill="#E5E5E5"/>
<path d="M106.339 102.447V116.324C106.339 132.893 119.771 146.324 136.339 146.324H153.078" stroke="#3A3836" stroke-width="2"/>
<path d="M84.8777 155.863H153.078" stroke="#3A3836" stroke-width="2"/>
<path d="M106.339 209.279V195.401C106.339 178.833 119.771 165.401 136.339 165.401H153.078" stroke="#3A3836" stroke-width="2"/>
<path d="M241 160H261.504C267.026 160 271.504 155.523 271.504 150V123C271.504 117.477 275.981 113 281.504 113H308" stroke="url(#paint0_linear_19_1843)" stroke-width="2"/>
<path d="M544.784 131.716H481.878C478.277 131.716 475.238 128.79 475.238 125.077V106.171C475.238 102.57 478.164 99.5317 481.878 99.5317H544.784C548.385 99.5317 551.423 102.458 551.423 106.171V125.077C551.423 128.79 548.497 131.716 544.784 131.716Z" fill="#D1DAFA" stroke="#3A3836" stroke-width="2" stroke-miterlimit="10"/>
<path d="M405.203 115.375H476.208" stroke="#3A3836" stroke-width="2" stroke-miterlimit="10"/>
<path d="M405.203 115.375H476.208" stroke="url(#paint1_linear_19_1843)" stroke-width="2" stroke-miterlimit="10"/>
<path d="M501.657 192.685H464.521C452.367 192.685 442.465 182.782 442.465 170.629V137.432C442.465 125.278 432.562 115.375 420.408 115.375H409.38" stroke="#3A3836" stroke-width="2" stroke-miterlimit="10"/>
<path d="M501.657 192.685H464.521C452.367 192.685 442.465 182.782 442.465 170.629V137.432C442.465 125.278 432.562 115.375 420.408 115.375H409.38" stroke="url(#paint2_linear_19_1843)" stroke-width="2" stroke-miterlimit="10"/>
<path d="M443.189 159.325C446.486 159.325 449.153 156.657 449.153 153.36C449.153 150.063 446.486 147.396 443.189 147.396C439.892 147.396 437.225 150.063 437.225 153.36C437.225 156.657 439.892 159.325 443.189 159.325Z" fill="#E4D8F6" stroke="#3A3836" stroke-width="2" stroke-miterlimit="10"/>
<mask id="mask0_19_1843" style="mask-type:alpha" maskUnits="userSpaceOnUse" x="497" y="175" width="67" height="40">
<rect x="497" y="175" width="67" height="40" fill="#D9D9D9"/>
</mask>
<g mask="url(#mask0_19_1843)">
<path d="M590.36 209.14H512.487C508.886 209.14 505.848 206.214 505.848 202.5V183.595C505.848 179.993 508.774 176.955 512.487 176.955H590.36C593.962 176.955 597 179.881 597 183.595V202.5C597 206.101 594.074 209.14 590.36 209.14Z" fill="white" stroke="#3A3836" stroke-width="2" stroke-miterlimit="10"/>
<path d="M590.36 209.14H512.487C508.886 209.14 505.848 206.214 505.848 202.5V183.595C505.848 179.993 508.774 176.955 512.487 176.955H590.36C593.962 176.955 597 179.881 597 183.595V202.5C597 206.101 594.074 209.14 590.36 209.14Z" stroke="#3A3836" stroke-width="2" stroke-miterlimit="10"/>
<path d="M590.36 209.14H512.487C508.886 209.14 505.848 206.214 505.848 202.5V183.595C505.848 179.993 508.774 176.955 512.487 176.955H590.36C593.962 176.955 597 179.881 597 183.595V202.5C597 206.101 594.074 209.14 590.36 209.14Z" fill="#A4EEC4" stroke="#3A3836" stroke-width="2" stroke-miterlimit="10"/>
<g style="mix-blend-mode:multiply">
<path d="M525.204 209.14H512.487C508.886 209.14 505.848 206.214 505.848 202.5V183.595C505.848 179.993 508.774 176.955 512.487 176.955H525.204V209.14Z" fill="#A4EEC4"/>
</g>
<path d="M590.36 209.14H512.487C508.886 209.14 505.848 206.214 505.848 202.5V183.595C505.848 179.993 508.774 176.955 512.487 176.955H590.36C593.962 176.955 597 179.881 597 183.595V202.5C597 206.101 594.074 209.14 590.36 209.14Z" stroke="#3A3836" stroke-width="2" stroke-miterlimit="10"/>
<path d="M579.334 196.086H538.147C536.459 196.086 534.996 194.735 534.996 192.935C534.996 191.134 536.346 189.784 538.147 189.784H579.334C581.022 189.784 582.485 191.134 582.485 192.935C582.485 194.735 581.022 196.086 579.334 196.086Z" fill="#69DE97"/>
<path d="M505.849 184.494V201.487C503.148 201.487 500.898 199.236 500.898 196.535V189.446C500.898 186.745 503.148 184.494 505.849 184.494Z" fill="#E6E6E6" stroke="#3A3836" stroke-width="2" stroke-miterlimit="10"/>
</g>
<path d="M544.784 131.716H481.878C478.277 131.716 475.238 128.79 475.238 125.077V106.171C475.238 102.57 478.164 99.5317 481.878 99.5317H544.784C548.385 99.5317 551.423 102.458 551.423 106.171V125.077C551.423 128.79 548.497 131.716 544.784 131.716Z" stroke="#3A3836" stroke-width="2" stroke-miterlimit="10"/>
<g style="mix-blend-mode:multiply">
<path d="M494.709 131.716H481.992C478.391 131.716 475.353 128.79 475.353 125.077V106.171C475.353 102.57 478.279 99.5317 481.992 99.5317H494.709V131.716Z" fill="#D1DAFA"/>
</g>
<path d="M544.784 131.716H481.878C478.277 131.716 475.238 128.79 475.238 125.077V106.171C475.238 102.57 478.164 99.5317 481.878 99.5317H544.784C548.385 99.5317 551.423 102.458 551.423 106.171V125.077C551.423 128.79 548.497 131.716 544.784 131.716Z" stroke="#3A3836" stroke-width="2" stroke-miterlimit="10"/>
<path d="M532.746 118.775H520.199H507.652C505.964 118.775 504.501 117.425 504.501 115.624C504.501 113.824 505.851 112.473 507.652 112.473H532.746C534.434 112.473 535.897 113.824 535.897 115.624C535.897 117.425 534.434 118.775 532.746 118.775Z" fill="#ABBAF5"/>
<path d="M475.352 107.184V124.177C472.651 124.177 470.4 121.926 470.4 119.225V112.136C470.4 109.435 472.651 107.184 475.352 107.184Z" fill="#E6E6E6" stroke="#3A3836" stroke-width="2" stroke-miterlimit="10"/>
<path d="M397.814 170.091H309.588C305.987 170.091 302.948 167.165 302.948 163.451V81.6395C302.948 78.0384 305.874 75 309.588 75H397.814C401.415 75 404.453 77.9259 404.453 81.6395V163.451C404.453 167.165 401.527 170.091 397.814 170.091Z" fill="#E4D8F6" stroke="#3A3836" stroke-width="2" stroke-miterlimit="10"/>
<g style="mix-blend-mode:multiply">
<path d="M404.453 94.2432H302.948V81.6395C302.948 78.0384 305.874 75 309.588 75H397.814C401.415 75 404.453 77.9259 404.453 81.6395V94.2432Z" fill="#E4D8F6"/>
</g>
<path d="M397.814 170.316H309.588C305.987 170.316 302.948 167.39 302.948 163.676V81.6395C302.948 78.0384 305.874 75 309.588 75H397.814C401.415 75 404.453 77.9259 404.453 81.6395V163.789C404.453 167.39 401.527 170.316 397.814 170.316Z" stroke="#3A3836" stroke-width="2" stroke-miterlimit="10"/>
<path d="M352.132 113.598H315.896C314.208 113.598 312.745 112.248 312.745 110.447C312.745 108.647 314.095 107.296 315.896 107.296H352.132C353.82 107.296 355.283 108.647 355.283 110.447C355.283 112.248 353.82 113.598 352.132 113.598Z" fill="#CCB7ED"/>
<path d="M391.515 113.598H372.384C370.696 113.598 369.233 112.248 369.233 110.447C369.233 108.647 370.584 107.296 372.384 107.296H391.515C393.203 107.296 394.666 108.647 394.666 110.447C394.666 112.248 393.203 113.598 391.515 113.598Z" fill="#CCB7ED"/>
<path d="M404.458 123.277V106.284C407.159 106.284 409.409 108.535 409.409 111.236V118.325C409.409 121.026 407.159 123.277 404.458 123.277Z" fill="#E6E6E6" stroke="#3A3836" stroke-width="2" stroke-miterlimit="10"/>
<path d="M404.458 151.072V134.08C407.159 134.08 409.409 136.33 409.409 139.031V146.121C409.409 148.934 407.159 151.072 404.458 151.072Z" fill="#E6E6E6" stroke="#3A3836" stroke-width="2" stroke-miterlimit="10"/>
<path d="M302.951 105.645V122.637C300.251 122.637 298 120.386 298 117.686V110.596C298 107.895 300.251 105.645 302.951 105.645Z" fill="#E6E6E6" stroke="#3A3836" stroke-width="2" stroke-miterlimit="10"/>
<path d="M337.946 149.384H316.002C314.314 149.384 312.851 148.033 312.851 146.233C312.851 144.432 314.201 143.082 316.002 143.082H337.946C339.634 143.082 341.097 144.432 341.097 146.233C341.097 148.033 339.634 149.384 337.946 149.384Z" fill="#CCB7ED"/>
<path d="M360.453 131.829H316.002C314.314 131.829 312.851 130.478 312.851 128.678C312.851 126.877 314.201 125.527 316.002 125.527H360.453C362.141 125.527 363.604 126.877 363.604 128.678C363.604 130.478 362.141 131.829 360.453 131.829Z" fill="#CCB7ED"/>
<circle cx="202.092" cy="155.092" r="52.0925" fill="white" stroke="#3A3836" stroke-width="2"/>
<circle cx="202.549" cy="155.523" r="39.7466" fill="white"/>
<path d="M228.067 132.88C228.006 132.91 227.951 132.952 227.906 133.003C227.86 133.054 227.826 133.113 227.804 133.178C227.782 133.242 227.772 133.31 227.777 133.378C227.781 133.446 227.799 133.513 227.829 133.574C227.964 133.842 228.018 134.144 227.984 134.442C227.949 134.74 227.828 135.022 227.636 135.253C227.553 135.359 227.515 135.493 227.529 135.627C227.544 135.761 227.61 135.883 227.714 135.969C227.819 136.055 227.952 136.097 228.087 136.086C228.221 136.076 228.347 136.013 228.436 135.912C228.757 135.527 228.958 135.057 229.016 134.559C229.073 134.062 228.984 133.559 228.759 133.111C228.698 132.99 228.59 132.898 228.461 132.854C228.331 132.811 228.19 132.821 228.067 132.88V132.88Z" fill="#FF6C37"/>
<path d="M208.101 110.845C183.516 107.708 161.027 124.991 157.873 149.456C154.72 173.921 172.086 196.286 196.673 199.424C221.26 202.563 243.75 185.281 246.901 160.823C250.052 136.365 232.687 113.985 208.101 110.845ZM217.343 138.701C216.51 138.713 215.715 139.047 215.126 139.633L198.472 156.199L194.922 152.664C211.329 136.38 214.287 136.224 217.343 138.701ZM199.15 156.79L215.757 140.265C216.191 139.834 216.78 139.592 217.394 139.592C218.007 139.592 218.596 139.834 219.03 140.265C219.254 140.488 219.43 140.754 219.546 141.047C219.662 141.34 219.717 141.653 219.707 141.968C219.696 142.283 219.621 142.592 219.486 142.877C219.351 143.162 219.159 143.416 218.921 143.624L201.347 158.98L199.15 156.79ZM200.385 159.369L196.271 160.251C196.222 160.262 196.172 160.256 196.126 160.236C196.081 160.215 196.044 160.18 196.02 160.137C195.996 160.093 195.987 160.043 195.994 159.994C196.001 159.945 196.024 159.9 196.059 159.865L198.471 157.464L200.385 159.369ZM189.899 157.662L194.284 153.299L197.571 156.569L190.168 158.154C190.106 158.167 190.041 158.16 189.984 158.133C189.926 158.107 189.879 158.063 189.849 158.008C189.819 157.952 189.807 157.889 189.816 157.827C189.825 157.764 189.854 157.707 189.899 157.662ZM176.265 180.213C176.211 180.207 176.161 180.186 176.119 180.152C176.077 180.119 176.045 180.074 176.028 180.024C176.01 179.973 176.008 179.918 176.02 179.866C176.032 179.814 176.059 179.767 176.097 179.729L179.635 176.209L184.204 180.755L176.265 180.213ZM185.336 175.533C185.168 175.62 185.033 175.76 184.953 175.931C184.874 176.103 184.854 176.296 184.896 176.479L185.655 179.703C185.674 179.801 185.662 179.903 185.62 179.994C185.577 180.084 185.507 180.159 185.42 180.208C185.332 180.257 185.231 180.276 185.131 180.264C185.031 180.252 184.938 180.209 184.864 180.141L180.273 175.573L194.339 161.579L201.148 160.124L204.415 163.375C199.717 167.465 193.298 171.556 185.336 175.53V175.533ZM205.075 162.777L201.937 159.656L219.513 144.298C219.676 144.155 219.824 143.997 219.955 143.825C219.4 148.838 212.365 155.905 205.08 162.774L205.075 162.777ZM218.75 138.731C217.517 137.494 216.811 135.832 216.776 134.091C216.742 132.35 217.382 130.662 218.565 129.378C219.747 128.094 221.381 127.311 223.127 127.193C224.874 127.074 226.599 127.629 227.946 128.742L221.914 134.744C221.872 134.785 221.839 134.835 221.816 134.889C221.793 134.943 221.782 135.001 221.782 135.059C221.782 135.118 221.793 135.176 221.816 135.23C221.839 135.284 221.872 135.333 221.914 135.375L226.577 140.015C225.303 140.641 223.863 140.854 222.46 140.623C221.057 140.392 219.763 139.729 218.759 138.727L218.75 138.731ZM228.391 138.731C228.082 139.037 227.744 139.312 227.381 139.552L222.863 135.056L228.598 129.352C229.783 130.641 230.424 132.335 230.385 134.082C230.346 135.828 229.631 137.492 228.388 138.727L228.391 138.731Z" fill="#FF6C37"/>
<rect x="69.3423" y="30" width="73.4303" height="73.4303" rx="9" fill="#E4D8F6" stroke="#3A3836" stroke-width="2"/>
<g style="mix-blend-mode:multiply">
<path d="M88.6965 54.1428L95.8803 46.959Z" fill="#CCB7ED"/>
<path d="M88.6965 54.1428L95.8803 46.959" stroke="#CCB7ED" stroke-width="2" stroke-miterlimit="10"/>
<path d="M101.867 46.959L109.051 54.1428Z" fill="#CCB7ED"/>
<path d="M101.867 46.959L109.051 54.1428" stroke="#CCB7ED" stroke-width="2" stroke-miterlimit="10"/>
<path d="M115.037 54.1428L122.221 46.959Z" fill="#CCB7ED"/>
<path d="M115.037 54.1428L122.221 46.959" stroke="#CCB7ED" stroke-width="2" stroke-miterlimit="10"/>
<path d="M108.452 79.2866H115.636V88.8651H108.452V79.2866Z" fill="#CCB7ED" stroke="#CCB7ED" stroke-width="2" stroke-miterlimit="10"/>
<path d="M82.1113 79.2866H89.2951V88.8651H82.1113V79.2866Z" fill="#CCB7ED" stroke="#CCB7ED" stroke-width="2" stroke-miterlimit="10"/>
<path d="M121.622 62.5239H128.806V88.8646H121.622V62.5239Z" fill="#CCB7ED" stroke="#CCB7ED" stroke-width="2" stroke-miterlimit="10"/>
<path d="M95.2817 62.5239H102.465V88.8646H95.2817V62.5239Z" fill="#CCB7ED" stroke="#CCB7ED" stroke-width="2" stroke-miterlimit="10"/>
<path d="M85.7032 60.1296C87.687 60.1296 89.2951 58.5215 89.2951 56.5377C89.2951 54.5539 87.687 52.9458 85.7032 52.9458C83.7195 52.9458 82.1113 54.5539 82.1113 56.5377C82.1113 58.5215 83.7195 60.1296 85.7032 60.1296Z" fill="#CCB7ED" stroke="#CCB7ED" stroke-width="2" stroke-miterlimit="10" stroke-linecap="square"/>
<path d="M112.044 60.1296C114.028 60.1296 115.636 58.5215 115.636 56.5377C115.636 54.5539 114.028 52.9458 112.044 52.9458C110.06 52.9458 108.452 54.5539 108.452 56.5377C108.452 58.5215 110.06 60.1296 112.044 60.1296Z" fill="#CCB7ED" stroke="#CCB7ED" stroke-width="2" stroke-miterlimit="10" stroke-linecap="square"/>
<path d="M98.8736 48.1565C100.857 48.1565 102.465 46.5483 102.465 44.5646C102.465 42.5808 100.857 40.9727 98.8736 40.9727C96.8898 40.9727 95.2817 42.5808 95.2817 44.5646C95.2817 46.5483 96.8898 48.1565 98.8736 48.1565Z" fill="#CCB7ED" stroke="#CCB7ED" stroke-width="2" stroke-miterlimit="10" stroke-linecap="square"/>
<path d="M125.214 48.1565C127.198 48.1565 128.806 46.5483 128.806 44.5646C128.806 42.5808 127.198 40.9727 125.214 40.9727C123.23 40.9727 121.622 42.5808 121.622 44.5646C121.622 46.5483 123.23 48.1565 125.214 48.1565Z" fill="#CCB7ED" stroke="#CCB7ED" stroke-width="2" stroke-miterlimit="10" stroke-linecap="square"/>
</g>
<rect x="11" y="121.57" width="73.4303" height="72.2329" rx="9" fill="#D1DAFA" stroke="#3A3836" stroke-width="2"/>
<g style="mix-blend-mode:multiply">
<path fill-rule="evenodd" clip-rule="evenodd" d="M48.3138 131.741C49.4184 131.741 50.3138 132.636 50.3138 133.741V136.623C52.7211 136.849 55.0112 137.478 57.1157 138.442L58.5548 135.95C59.1071 134.993 60.3303 134.665 61.2869 135.218C62.2434 135.77 62.5712 136.993 62.0189 137.95L60.5781 140.445C62.5011 141.816 64.1852 143.5 65.5555 145.423L68.0511 143.982C69.0077 143.43 70.2309 143.757 70.7832 144.714C71.3355 145.67 71.0077 146.894 70.0512 147.446L67.5586 148.885C68.5226 150.99 69.1517 153.279 69.3774 155.687H69.4707V155.687H72.2599C73.3645 155.687 74.2599 156.582 74.2599 157.687C74.2599 158.791 73.3645 159.687 72.2599 159.687H69.3774C69.1516 162.094 68.5225 164.384 67.5584 166.489L70.0512 167.928C71.0077 168.48 71.3355 169.703 70.7832 170.66C70.2309 171.617 69.0077 171.944 68.0511 171.392L65.5553 169.951C64.1849 171.874 62.5009 173.558 60.5778 174.929L62.0189 177.424C62.5712 178.381 62.2434 179.604 61.2869 180.157C60.3303 180.709 59.1071 180.381 58.5548 179.425L57.1154 176.932C55.011 177.896 52.721 178.525 50.3138 178.75V181.633C50.3138 182.738 49.4184 183.633 48.3138 183.633C47.2092 183.633 46.3138 182.738 46.3138 181.633V178.75C43.9064 178.525 41.6163 177.896 39.5117 176.931L38.0729 179.424C37.5207 180.381 36.2976 180.709 35.3409 180.156C34.3843 179.604 34.0564 178.381 34.6086 177.425L36.0021 175.01L36.0017 175.01L36.0491 174.928C34.1263 173.558 32.4425 171.874 31.0722 169.951L28.5765 171.392C27.6199 171.944 26.3967 171.617 25.8444 170.66C25.2921 169.703 25.6198 168.48 26.5764 167.928L29.0691 166.489C28.105 164.384 27.4759 162.094 27.2502 159.687H24.3677C23.2631 159.687 22.3677 158.791 22.3677 157.687C22.3677 156.582 23.2631 155.687 24.3677 155.687H27.2502C27.4759 153.28 28.1049 150.99 29.069 148.885L26.5764 147.446C25.6198 146.894 25.2921 145.67 25.8444 144.714C26.3967 143.757 27.6199 143.43 28.5765 143.982L31.072 145.423C32.4423 143.5 34.1262 141.816 36.0491 140.445L36.0017 140.363L36.0018 140.363L34.6086 137.949C34.0564 136.993 34.3843 135.77 35.3409 135.217C36.2976 134.665 37.5207 134.993 38.0729 135.95L39.5115 138.442C41.6162 137.478 43.9064 136.849 46.3138 136.623V133.741C46.3138 132.636 47.2092 131.741 48.3138 131.741ZM56.795 142.769C56.8266 142.79 56.859 142.81 56.8922 142.829C56.9244 142.848 56.9568 142.865 56.9895 142.882C59.5192 144.367 61.6344 146.483 63.1198 149.013C63.1361 149.045 63.1534 149.077 63.1716 149.109C63.1905 149.141 63.2101 149.173 63.2304 149.204C64.3435 151.157 65.0841 153.35 65.3553 155.687H49.4685L41.5231 141.926C43.6001 141.03 45.8894 140.532 48.2946 140.53L48.3138 140.53L48.3329 140.53C51.4107 140.533 54.2987 141.347 56.795 142.769ZM65.3554 159.687C65.084 162.024 64.3427 164.219 63.2285 166.173C63.2088 166.203 63.1899 166.234 63.1716 166.265C63.154 166.296 63.1372 166.327 63.1214 166.358C61.6343 168.892 59.5154 171.01 56.9809 172.497C56.9511 172.512 56.9215 172.528 56.8922 172.545C56.8619 172.563 56.8322 172.581 56.8032 172.599C54.2999 174.028 51.4021 174.844 48.3138 174.844C45.9015 174.844 43.6056 174.346 41.523 173.447L49.4685 159.687H65.3554ZM38.0607 171.444C36.2241 170.073 34.6713 168.343 33.5063 166.358C33.4904 166.327 33.4736 166.296 33.4559 166.265C33.4377 166.234 33.4187 166.203 33.399 166.173C31.9728 163.671 31.1577 160.777 31.1569 157.691L31.1569 157.687L31.1569 157.684C31.1574 154.599 31.9719 151.705 33.3971 149.204C33.4175 149.173 33.4371 149.141 33.4559 149.109C33.4742 149.077 33.4915 149.045 33.5079 149.013C34.6728 147.029 36.225 145.3 38.0607 143.929L46.0044 157.687L38.0607 171.444Z" fill="#ABBAF5"/>
</g>
<rect x="70.2439" y="208.57" width="73.4303" height="73.4303" rx="9" fill="#A4EEC4" stroke="#3A3836" stroke-width="2"/>
<g style="mix-blend-mode:multiply">
<path fill-rule="evenodd" clip-rule="evenodd" d="M128.538 224.332H84.4304C83.2606 224.332 82.1387 224.797 81.3115 225.624C80.4844 226.451 80.0197 227.573 80.0197 228.743V255.208C80.0197 256.377 80.4844 257.499 81.3115 258.326C82.1387 259.154 83.2606 259.618 84.4304 259.618H97.6628L95.9519 268.917C95.6287 270.673 97.595 271.94 99.0611 270.92L115.306 259.618H128.538C129.708 259.618 130.83 259.154 131.657 258.326C132.484 257.499 132.949 256.377 132.949 255.208V228.743C132.949 227.573 132.484 226.451 131.657 225.624C130.83 224.797 129.708 224.332 128.538 224.332ZM90.3699 236.682C90.3699 235.578 91.2653 234.682 92.3699 234.682H120.599C121.703 234.682 122.599 235.578 122.599 236.682C122.599 237.787 121.703 238.682 120.599 238.682H92.3699C91.2653 238.682 90.3699 237.787 90.3699 236.682ZM92.3699 245.268C91.2653 245.268 90.3699 246.163 90.3699 247.268C90.3699 248.373 91.2653 249.268 92.3699 249.268H108.249C109.353 249.268 110.249 248.373 110.249 247.268C110.249 246.163 109.353 245.268 108.249 245.268H92.3699Z" fill="#69DE97"/>
</g>
<defs>
<linearGradient id="paint0_linear_19_1843" x1="240.911" y1="160.77" x2="302.633" y2="160.77" gradientUnits="userSpaceOnUse">
<stop stop-color="#FF6C37"/>
<stop offset="1" stop-color="#FFB400"/>
</linearGradient>
<linearGradient id="paint1_linear_19_1843" x1="405.109" y1="116.391" x2="470.52" y2="116.391" gradientUnits="userSpaceOnUse">
<stop stop-color="#FF6C37"/>
<stop offset="1" stop-color="#FFB400"/>
</linearGradient>
<linearGradient id="paint2_linear_19_1843" x1="409.257" y1="193.953" x2="494.265" y2="193.953" gradientUnits="userSpaceOnUse">
<stop stop-color="#FF6C37"/>
<stop offset="1" stop-color="#FFB400"/>
</linearGradient>
</defs>
</svg>
